# xmcd CD database file
#
# Track frame offsets:
#	150
#	50699
#	109874
#	161549
#	213149
#	222320
#
# Disc length: 3505 seconds
#
# Revision: 0
# Processed by: cddbd v1.4PL0 Copyright (c) Steve Scherf et al.
# Submitted via: CDex 1.50beta9
#
DISCID=520daf06
DTITLE=KANKAWA&JUCK MUCDUFF -  ORGAN MEETING
DYEAR=2001
DGENRE=Jazz
TTITLE0=Pettin'Cat
TTITLE1=Satin Doll
TTITLE2=G-Blues
TTITLE3=Softly As In A Morning Sunrise
TTITLE4=Organ Talking
TTITLE5=T-Bone Steak
EXTD=YEAR: 2001
EXTT0=
EXTT1=
EXTT2=
EXTT3=
EXTT4=
EXTT5=
PLAYORDER=
